<?xml version="1.0" encoding="utf-8"?>
<!-- Generator: Adobe Illustrator 16.0.0, SVG Export Plug-In . SVG Version: 6.00 Build 0)  -->
<!DOCTYPE svg PUBLIC "-//W3C//DTD SVG 1.1//EN" "http://www.w3.org/Graphics/SVG/1.1/DTD/svg11.dtd">
<svg version="1.1" id="Layer_1" xmlns="http://www.w3.org/2000/svg" xmlns:xlink="http://www.w3.org/1999/xlink" x="0px" y="0px"
	 width="81px" height="81px" viewBox="0 0 81 81" enable-background="new 0 0 81 81" xml:space="preserve">
<g id="Layer_1_1_">
	<circle fill="#FFFFFF" stroke="#FFFFFF" stroke-miterlimit="10" cx="40.594" cy="14.446" r="4.292"/>
	<path fill="#FFFFFF" stroke="#FFFFFF" stroke-miterlimit="10" d="M45.667,63.708c0,2.371-1.92,4.293-4.291,4.293h-0.417
		c-2.37,0-4.292-1.922-4.292-4.293V27.292c0-2.37,1.921-4.292,4.292-4.292h0.417c2.369,0,4.291,1.921,4.291,4.292V63.708z"/>
	<path fill="#FFFFFF" stroke="#FFFFFF" stroke-miterlimit="10" d="M44.885,26c0,1.675-1.754,3-3.918,3H34.81
		c-2.164,0-3.918-1.325-3.918-3l0,0c0-1.674,1.754-3,3.918-3h6.157C43.131,23,44.885,24.326,44.885,26L44.885,26z"/>
	<path fill="#FFFFFF" stroke="#FFFFFF" stroke-miterlimit="10" d="M51.667,66.232c0,1.528-1.238,2.769-2.768,2.769H32.435
		c-1.528,0-2.768-1.24-2.768-2.769v-0.465c0-1.528,1.239-2.769,2.768-2.769H48.9c1.528,0,2.769,1.24,2.769,2.769v0.465H51.667z"/>
	<circle fill="none" stroke="#FFFFFF" stroke-width="5" stroke-miterlimit="10" cx="40.5" cy="40.5" r="38"/>
</g>
</svg>
