<?xml version="1.0" encoding="utf-8"?>
<!-- Generator: Adobe Illustrator 16.0.0, SVG Export Plug-In . SVG Version: 6.00 Build 0)  -->
<!DOCTYPE svg PUBLIC "-//W3C//DTD SVG 1.1//EN" "http://www.w3.org/Graphics/SVG/1.1/DTD/svg11.dtd">
<svg version="1.1" xmlns="http://www.w3.org/2000/svg" xmlns:xlink="http://www.w3.org/1999/xlink" x="0px" y="0px"
	 width="81.001px" height="81.001px" viewBox="0 0 81.001 81.001" enable-background="new 0 0 81.001 81.001" xml:space="preserve">
<g id="Layer_2">
	<rect x="-20.333" y="-7" stroke="#FFFFFF" stroke-miterlimit="10" width="120" height="101"/>
</g>
<g id="Layer_1">
	<circle fill="#FFFFFF" stroke="#FFFFFF" stroke-miterlimit="10" cx="40.594" cy="14.446" r="4.292"/>
	<path fill="#FFFFFF" stroke="#FFFFFF" stroke-miterlimit="10" d="M45.667,63.708c0,2.37-1.921,4.292-4.292,4.292h-0.417
		c-2.37,0-4.292-1.921-4.292-4.292V27.292c0-2.37,1.921-4.292,4.292-4.292h0.417c2.37,0,4.292,1.921,4.292,4.292V63.708z"/>
	<path fill="#FFFFFF" stroke="#FFFFFF" stroke-miterlimit="10" d="M44.885,26c0,1.675-1.754,3-3.918,3H34.81
		c-2.164,0-3.918-1.325-3.918-3l0,0c0-1.674,1.754-3,3.918-3h6.157C43.131,23,44.885,24.326,44.885,26L44.885,26z"/>
	<path fill="#FFFFFF" stroke="#FFFFFF" stroke-miterlimit="10" d="M51.667,66.232c0,1.528-1.239,2.768-2.768,2.768H32.435
		c-1.528,0-2.768-1.239-2.768-2.768v-0.465c0-1.528,1.239-2.768,2.768-2.768h16.465c1.528,0,2.768,1.239,2.768,2.768V66.232z"/>
	<circle fill="none" stroke="#FFFFFF" stroke-width="5" stroke-miterlimit="10" cx="40.5" cy="40.5" r="38"/>
</g>
</svg>
